<svg width="47" height="51" viewBox="0 0 47 51" fill="none" xmlns="http://www.w3.org/2000/svg">
<path d="M40.6 8.275L29 1.575C25.4 -0.525 21 -0.525 17.4 1.575L5.8 8.275C2.2 10.375 0 14.175 0 18.375V31.775C0 35.875 2.2 39.775 5.8 41.875L17.4 48.575C19.2 49.575 21.2 50.175 23.2 50.175C25.2 50.175 27.2 49.675 29 48.575L40.6 41.875C44.2 39.775 46.4 35.975 46.4 31.775V18.375C46.4 14.275 44.2 10.375 40.6 8.275ZM43.4 31.775C43.4 34.875 41.7 37.675 39.1 39.275L27.5 45.975C24.8 47.475 21.5 47.475 18.9 45.975L7.3 39.275C4.6 37.775 3 34.875 3 31.775V18.375C3 15.275 4.7 12.475 7.3 10.875L18.9 4.175C20.2 3.375 21.7 2.975 23.2 2.975C24.7 2.975 26.2 3.375 27.5 4.175L39.1 10.875C41.8 12.375 43.4 15.275 43.4 18.375V31.775V31.775Z" fill="#2E2842"/>
<path d="M22.9999 16.6748C18.2999 16.6748 14.3999 20.5748 14.3999 25.2748C14.3999 29.9748 18.2999 33.8748 22.9999 33.8748C27.6999 33.8748 31.5999 29.9748 31.5999 25.2748C31.5999 20.4748 27.6999 16.6748 22.9999 16.6748ZM22.9999 30.7748C19.8999 30.7748 17.3999 28.2748 17.3999 25.1748C17.3999 22.0748 19.8999 19.5748 22.9999 19.5748C26.0999 19.5748 28.5999 22.0748 28.5999 25.1748C28.5999 28.2748 26.0999 30.7748 22.9999 30.7748Z" fill="#2E2842"/>
</svg>
