<svg width="35" height="35" viewBox="0 0 35 35" fill="none" xmlns="http://www.w3.org/2000/svg">
<path fill-rule="evenodd" clip-rule="evenodd" d="M4.86111 0H30.1389C32.8247 0 35 2.17535 35 4.86111V30.1389C35 32.8247 32.8247 35 30.1389 35H19.8311V22.3007H25.6621V17.6319H19.8311V13.5509C19.8311 12.5598 20.5898 11.801 21.5811 11.801H26.25V7.13216H21C17.7324 7.4261 15.1689 10.2288 15.1689 13.5509V17.6319H10.5V22.3007H15.1689V28.1316V33.9625V35H4.86111C2.17535 35 0 32.8247 0 30.1389V4.86111C0 2.17535 2.17535 0 4.86111 0Z" fill="#00B6F0"/>
</svg>
