<svg width="35" height="35" viewBox="0 0 35 35" fill="none" xmlns="http://www.w3.org/2000/svg">
<path fill-rule="evenodd" clip-rule="evenodd" d="M30.1389 0H4.86111C2.17535 0 0 2.17535 0 4.86111V30.1389C0 32.8247 2.17535 35 4.86111 35H30.1389C32.8247 35 35 32.8247 35 30.1389V4.86111C35 2.17535 32.8247 0 30.1389 0ZM17.4998 10.8008C13.8051 10.8008 10.7998 13.806 10.7998 17.5008C10.7998 21.1955 13.8051 24.2008 17.4998 24.2008C21.1945 24.2008 24.1998 21.1955 24.1998 17.5008C24.1998 13.806 21.1945 10.8008 17.4998 10.8008ZM8.7998 17.5008C8.7998 12.7015 12.7005 8.80078 17.4998 8.80078C22.2991 8.80078 26.1998 12.7015 26.1998 17.5008C26.1998 22.3001 22.2991 26.2008 17.4998 26.2008C12.7005 26.2008 8.7998 22.3001 8.7998 17.5008ZM26.5996 6.33626C26.5996 5.15307 27.5516 4.20117 28.735 4.20117C29.9184 4.20117 30.8704 5.15307 30.8704 6.33626C30.8704 7.51945 29.9184 8.47135 28.735 8.47135C27.5516 8.47135 26.5996 7.51945 26.5996 6.33626Z" fill="#00B6F0"/>
</svg>
