<svg width="35" height="35" viewBox="0 0 35 35" fill="none" xmlns="http://www.w3.org/2000/svg">
<path fill-rule="evenodd" clip-rule="evenodd" d="M4.86111 0H30.1389C32.8247 0 35 2.17535 35 4.86111V30.1389C35 32.8247 32.8247 35 30.1389 35H4.86111C2.17535 35 0 32.8247 0 30.1389V4.86111C0 2.17535 2.17535 0 4.86111 0ZM28.6876 10.8089C28.8401 10.7703 29.0275 10.8089 29.1408 10.9202C29.254 11.0315 29.2933 11.2155 29.2628 11.3696C28.9229 12.4441 28.2432 13.2275 27.411 13.6341V13.7454C27.411 20.9156 21.9648 26.7459 15.3116 26.7459C11.569 26.7459 8.54085 26.1166 7.18147 25.0379C7.02897 24.8881 6.95491 24.704 7.02897 24.4814C7.1074 24.2973 7.29475 24.1475 7.52132 24.1475C9.7521 24.109 11.1856 23.591 12.2835 22.9575C10.166 22.6963 8.84149 21.6947 8.1618 19.7983C8.08773 19.61 8.16615 19.4259 8.31429 19.3146C8.46243 19.2033 8.68899 19.2033 8.84149 19.2761C9.41226 19.6485 9.97867 19.7213 10.6584 19.7213C9.22055 18.8694 7.89602 17.4568 7.36882 15.7103C7.32961 15.5219 7.40368 15.2993 7.55617 15.2265C7.74352 15.1152 7.93087 15.1538 8.08337 15.2651C8.50164 15.599 8.95477 15.8216 9.63446 15.9329C8.15744 14.4474 7.25118 12.2557 8.5365 9.84142L8.76306 9.39623L9.14212 9.76865C11.4862 12.183 13.6385 13.2959 17.5729 14.0451V13.8952C17.5729 11.1813 19.7296 8.95532 22.4136 8.91679C23.4723 8.91679 24.945 9.66163 25.5506 9.99553C25.5636 9.99553 25.5773 10.0009 25.5893 10.0057C25.6093 10.0136 25.6247 10.0196 25.6247 9.99553C26.3828 9.77293 27.289 9.40051 28.3478 8.95532C28.5003 8.87827 28.6876 8.91679 28.8009 9.02809C28.9142 9.13939 28.9491 9.28921 28.875 9.47328C28.6876 9.99125 28.3826 10.552 27.9295 11.07L28.6876 10.8089Z" fill="#00B6F0"/>
</svg>
